<svg width="26" height="26" viewBox="0 0 26 26" fill="none" xmlns="http://www.w3.org/2000/svg">
<path d="M25.4375 13.2848C25.4375 12.4509 25.3644 11.6592 25.239 10.8887H13.4331V15.6492H20.1928C19.8898 17.2114 19.0017 18.5309 17.6853 19.4281V22.5948H21.7181C24.0793 20.3887 25.4375 17.1376 25.4375 13.2848Z" fill="#4285F4"/>
<path d="M13.4329 25.6664C16.818 25.6664 19.6493 24.5264 21.7179 22.5948L17.6851 19.4281C16.5568 20.1881 15.1254 20.6525 13.4329 20.6525C10.1628 20.6525 7.39413 18.4253 6.4016 15.417H2.24341V18.6787C4.30161 22.8164 8.53293 25.6664 13.4329 25.6664Z" fill="#34A853"/>
<path d="M6.40169 15.4172C6.1405 14.6572 6.00468 13.8444 6.00468 12.9999C6.00468 12.1555 6.15095 11.3427 6.40169 10.5827V7.32104H2.24351C1.38679 9.03105 0.895752 10.9522 0.895752 12.9999C0.895752 15.0477 1.38679 16.9688 2.24351 18.6788L6.40169 15.4172Z" fill="#FBBC05"/>
<path d="M13.4329 5.34714C15.2821 5.34714 16.9329 5.99103 18.2388 7.24714L21.812 3.63714C19.6493 1.58936 16.818 0.333252 13.4329 0.333252C8.53293 0.333252 4.30161 3.18325 2.24341 7.32103L6.4016 10.5827C7.39413 7.57436 10.1628 5.34714 13.4329 5.34714Z" fill="#EA4335"/>
</svg>
