<svg width="24" height="25" viewBox="0 0 24 25" fill="none" xmlns="http://www.w3.org/2000/svg">
<path d="M21 20.75C21.4142 20.75 21.75 21.0858 21.75 21.5C21.75 21.9142 21.4142 22.25 21 22.25H3C2.58579 22.25 2.25 21.9142 2.25 21.5C2.25 21.0858 2.58579 20.75 3 20.75H21ZM12 6.75C12.2841 6.75 12.5439 6.91095 12.6709 7.16504L17.6709 17.165C17.8558 17.5354 17.7053 17.9857 17.335 18.1709C16.9646 18.3558 16.5143 18.2053 16.3291 17.835L14.7129 14.6025C14.6717 14.6247 14.6293 14.6487 14.585 14.6709C13.9933 14.9667 13.1293 15.25 12 15.25C10.8707 15.25 10.0067 14.9667 9.41504 14.6709C9.37041 14.6486 9.3276 14.6248 9.28613 14.6025L7.6709 17.835C7.48572 18.2053 7.03545 18.3558 6.66504 18.1709C6.29469 17.9857 6.14416 17.5354 6.3291 17.165L11.3291 7.16504C11.4561 6.91095 11.7159 6.75 12 6.75ZM9.95898 13.2578C9.99893 13.28 10.0395 13.3064 10.085 13.3291C10.4932 13.5332 11.1296 13.75 12 13.75C12.8704 13.75 13.5068 13.5332 13.915 13.3291C13.9602 13.3065 14.0003 13.2799 14.04 13.2578L12 9.17676L9.95898 13.2578ZM21 2.75C21.4142 2.75 21.75 3.08579 21.75 3.5C21.75 3.91421 21.4142 4.25 21 4.25H3C2.58579 4.25 2.25 3.91421 2.25 3.5C2.25 3.08579 2.58579 2.75 3 2.75H21Z" fill="black"/>
</svg>
