<svg width="24" height="25" viewBox="0 0 24 25" fill="none" xmlns="http://www.w3.org/2000/svg">
<path d="M6.79981 2.99634C7.34749 2.99634 7.80368 2.99532 8.17481 3.02564C8.55454 3.05667 8.91091 3.12443 9.24805 3.29615C9.7655 3.5598 10.1865 3.98085 10.4502 4.4983C10.6219 4.83544 10.6897 5.19181 10.7207 5.57154C10.751 5.94267 10.75 6.39886 10.75 6.94654V18.5461C10.75 19.0938 10.751 19.55 10.7207 19.9211C10.6897 20.3009 10.6219 20.6572 10.4502 20.9944C10.1865 21.5118 9.7655 21.9329 9.24805 22.1965C8.91091 22.3682 8.55454 22.436 8.17481 22.467C7.80368 22.4974 7.34749 22.4963 6.79981 22.4963H6.2002C5.65252 22.4963 5.19633 22.4974 4.8252 22.467C4.44547 22.436 4.0891 22.3682 3.75196 22.1965C3.23451 21.9329 2.81346 21.5118 2.54981 20.9944C2.3781 20.6572 2.31033 20.3009 2.2793 19.9211C2.24898 19.55 2.25 19.0938 2.25 18.5461V6.94654C2.25 6.39886 2.24898 5.94267 2.2793 5.57154C2.31033 5.19181 2.3781 4.83544 2.54981 4.4983C2.81346 3.98085 3.23451 3.5598 3.75196 3.29615C4.0891 3.12443 4.44547 3.05667 4.8252 3.02564C5.19633 2.99532 5.65252 2.99634 6.2002 2.99634H6.79981ZM17.7998 2.99634C18.3475 2.99634 18.8037 2.99532 19.1748 3.02564C19.5545 3.05667 19.9109 3.12443 20.2481 3.29615C20.7655 3.5598 21.1865 3.98085 21.4502 4.4983C21.6219 4.83544 21.6897 5.19181 21.7207 5.57154C21.751 5.94267 21.75 6.39886 21.75 6.94654V18.5461C21.75 19.0938 21.751 19.55 21.7207 19.9211C21.6897 20.3009 21.6219 20.6572 21.4502 20.9944C21.1865 21.5118 20.7655 21.9329 20.2481 22.1965C19.9109 22.3682 19.5545 22.436 19.1748 22.467C18.8037 22.4974 18.3475 22.4963 17.7998 22.4963H17.2002C16.6525 22.4963 16.1963 22.4974 15.8252 22.467C15.4455 22.436 15.0891 22.3682 14.752 22.1965C14.2345 21.9329 13.8135 21.5118 13.5498 20.9944C13.3781 20.6572 13.3103 20.3009 13.2793 19.9211C13.249 19.55 13.25 19.0938 13.25 18.5461V6.94654C13.25 6.39886 13.249 5.94267 13.2793 5.57154C13.3103 5.19181 13.3781 4.83544 13.5498 4.4983C13.8135 3.98085 14.2345 3.5598 14.752 3.29615C15.0891 3.12443 15.4455 3.05667 15.8252 3.02564C16.1963 2.99532 16.6525 2.99634 17.2002 2.99634H17.7998ZM6.2002 4.49634C5.62777 4.49634 5.24315 4.49658 4.94727 4.52076C4.66027 4.54422 4.52316 4.58693 4.43262 4.63306C4.19751 4.75289 4.00655 4.94384 3.88672 5.17896C3.84059 5.2695 3.79788 5.40661 3.77442 5.69361C3.75024 5.98949 3.75 6.37411 3.75 6.94654V18.5461C3.75 19.1186 3.75024 19.5032 3.77442 19.7991C3.79788 20.0861 3.84059 20.2232 3.88672 20.3137C4.00655 20.5488 4.19751 20.7398 4.43262 20.8596C4.52316 20.9058 4.66027 20.9485 4.94727 20.9719C5.24315 20.9961 5.62777 20.9963 6.2002 20.9963H6.79981C7.37224 20.9963 7.75686 20.9961 8.05274 20.9719C8.33974 20.9485 8.47685 20.9058 8.56739 20.8596C8.8025 20.7398 8.99346 20.5488 9.11329 20.3137C9.15942 20.2232 9.20213 20.0861 9.22559 19.7991C9.24976 19.5032 9.25 19.1186 9.25 18.5461V6.94654C9.25 6.37411 9.24976 5.98949 9.22559 5.69361C9.20213 5.40661 9.15942 5.2695 9.11329 5.17896C8.99346 4.94384 8.8025 4.75289 8.56739 4.63306C8.47685 4.58693 8.33974 4.54422 8.05274 4.52076C7.75686 4.49658 7.37224 4.49634 6.79981 4.49634H6.2002ZM17.2002 4.49634C16.6278 4.49634 16.2431 4.49658 15.9473 4.52076C15.6603 4.54422 15.5232 4.58693 15.4326 4.63306C15.1975 4.75289 15.0065 4.94384 14.8867 5.17896C14.8406 5.2695 14.7979 5.40661 14.7744 5.69361C14.7502 5.98949 14.75 6.37411 14.75 6.94654V18.5461C14.75 19.1186 14.7502 19.5032 14.7744 19.7991C14.7979 20.0861 14.8406 20.2232 14.8867 20.3137C15.0065 20.5488 15.1975 20.7398 15.4326 20.8596C15.5232 20.9058 15.6603 20.9485 15.9473 20.9719C16.2431 20.9961 16.6278 20.9963 17.2002 20.9963H17.7998C18.3722 20.9963 18.7569 20.9961 19.0527 20.9719C19.3397 20.9485 19.4768 20.9058 19.5674 20.8596C19.8025 20.7398 19.9935 20.5488 20.1133 20.3137C20.1594 20.2232 20.2021 20.0861 20.2256 19.7991C20.2498 19.5032 20.25 19.1186 20.25 18.5461V6.94654C20.25 6.37411 20.2498 5.98949 20.2256 5.69361C20.2021 5.40661 20.1594 5.2695 20.1133 5.17896C19.9935 4.94384 19.8025 4.75289 19.5674 4.63306C19.4768 4.58693 19.3397 4.54422 19.0527 4.52076C18.7569 4.49658 18.3722 4.49634 17.7998 4.49634H17.2002Z" fill="white"/>
</svg>
