<svg width="358" height="367" viewBox="0 0 358 367" fill="none" xmlns="http://www.w3.org/2000/svg">
<rect width="358" height="367" rx="47.3825" fill="#E2E2E2"/>
<path d="M169.663 176.664C171.205 176.102 172.909 176.142 174.428 176.784L174.63 176.875C175.625 177.352 176.4 178.15 177.114 179.065C177.875 180.041 178.722 181.36 179.764 182.982L184.923 191.008C185.628 189.92 186.242 189.004 186.808 188.278C187.57 187.302 188.4 186.46 189.494 185.998L189.801 185.877C191.343 185.315 193.046 185.356 194.565 185.998L194.767 186.089C195.763 186.565 196.538 187.363 197.252 188.278C198.013 189.254 198.859 190.574 199.901 192.196L201.415 194.549L202.272 195.886C203.083 197.158 203.751 198.239 204.234 199.167C204.831 200.314 205.282 201.47 205.259 202.675L205.249 202.917C205.123 204.684 204.283 206.318 202.931 207.449L202.655 207.668C201.617 208.444 200.324 208.716 198.951 208.842C197.562 208.97 195.769 208.967 193.543 208.967H164.457C162.231 208.967 160.437 208.97 159.048 208.842C157.76 208.724 156.544 208.478 155.542 207.808L155.344 207.668C153.926 206.606 153.005 205.016 152.785 203.268L152.751 202.917C152.659 201.624 153.129 200.39 153.765 199.167C154.409 197.929 155.381 196.422 156.585 194.549L164.02 182.982C165.063 181.36 165.91 180.041 166.671 179.065C167.432 178.089 168.262 177.246 169.356 176.784L169.663 176.664ZM173.045 180.057C172.354 179.766 171.58 179.747 170.879 180.003L170.74 180.057C170.485 180.165 170.109 180.434 169.472 181.251C168.835 182.068 168.089 183.224 167.009 184.904L159.574 196.471C158.332 198.403 157.469 199.749 156.918 200.807C156.36 201.879 156.275 202.383 156.295 202.664L156.311 202.824C156.412 203.618 156.83 204.34 157.474 204.823L157.571 204.887C157.828 205.04 158.32 205.207 159.373 205.303C160.561 205.412 162.16 205.414 164.457 205.414H189.959L183.427 195.254L176.775 184.904C175.696 183.225 174.95 182.068 174.312 181.251C173.755 180.536 173.398 180.241 173.146 180.106L173.045 180.057ZM193.182 189.271C192.492 188.979 191.717 188.961 191.016 189.216L190.877 189.271C190.621 189.379 190.247 189.647 189.61 190.464C188.973 191.281 188.227 192.437 187.147 194.117L187.034 194.292L194.183 205.413C196.142 205.412 197.552 205.402 198.627 205.303C199.83 205.193 200.3 204.991 200.525 204.823L200.651 204.723C201.265 204.209 201.646 203.467 201.704 202.664L201.706 202.547C201.695 202.249 201.57 201.745 201.082 200.807C200.669 200.014 200.079 199.058 199.287 197.815L198.426 196.471L196.912 194.117C195.832 192.438 195.087 191.281 194.45 190.464C193.892 189.749 193.535 189.454 193.284 189.319L193.182 189.271ZM190.845 158.032C195.752 158.032 199.729 162.009 199.729 166.916C199.729 171.822 195.752 175.799 190.845 175.799C185.939 175.799 181.962 171.822 181.962 166.916C181.962 162.009 185.939 158.032 190.845 158.032ZM190.845 161.585C187.902 161.585 185.515 163.972 185.514 166.916C185.514 169.86 187.901 172.246 190.845 172.246C193.789 172.246 196.175 169.86 196.176 166.916C196.175 163.972 193.789 161.585 190.845 161.585Z" fill="#22272F"/>
</svg>
