<svg width="24" height="25" viewBox="0 0 24 25" fill="none" xmlns="http://www.w3.org/2000/svg">
<path d="M7.53711 2.02893C8.39428 1.94502 9.26711 2.21945 10.2549 2.68713C11.2467 3.15677 12.4682 3.87921 14.0371 4.80627L17.0566 6.59143C18.5784 7.49063 19.7652 8.19064 20.6318 8.81604C21.4961 9.4398 22.1432 10.0579 22.4844 10.8326C23.0213 12.0522 23.0213 13.4412 22.4844 14.6608C22.1431 15.4355 21.4961 16.0536 20.6318 16.6774C19.7652 17.3028 18.5784 18.0028 17.0566 18.902L14.0371 20.6871C12.4682 21.6142 11.2467 22.3366 10.2549 22.8063C9.26716 23.2739 8.39425 23.5484 7.53711 23.4645C6.19084 23.3326 4.96454 22.6325 4.16602 21.5406C3.65767 20.8454 3.4495 19.9541 3.34961 18.8658C3.24934 17.773 3.25 16.3534 3.25 14.5309V10.9625C3.25 9.14004 3.24936 7.72047 3.34961 6.62756C3.44948 5.53926 3.65771 4.64803 4.16602 3.95276C4.96454 2.86082 6.19078 2.16081 7.53711 2.02893ZM7.68359 3.52209C6.76237 3.61234 5.92331 4.09131 5.37695 4.8385C5.11437 5.19771 4.93566 5.75286 4.84277 6.76526C4.75034 7.7733 4.75 9.1107 4.75 10.9625V14.5309C4.75 16.3827 4.75032 17.7201 4.84277 18.7281C4.93568 19.7405 5.11433 20.2957 5.37695 20.6549C5.92331 21.402 6.76243 21.8811 7.68359 21.9713C8.12637 22.0146 8.69468 21.8857 9.61328 21.4508C10.5282 21.0176 11.6798 20.3374 13.2744 19.3951L16.2939 17.611C17.8412 16.6966 18.9572 16.0362 19.7549 15.4606C20.5544 14.8835 20.9341 14.4585 21.1113 14.0563C21.4788 13.2218 21.4787 12.2716 21.1113 11.4371C20.9342 11.0348 20.5545 10.61 19.7549 10.0328C18.9573 9.45717 17.8413 8.79677 16.2939 7.88244L13.2744 6.09826C11.6798 5.15602 10.5282 4.47583 9.61328 4.0426C8.69461 3.60763 8.12639 3.47883 7.68359 3.52209Z" fill="white"/>
</svg>
