<svg width="24" height="25" viewBox="0 0 24 25" fill="none" xmlns="http://www.w3.org/2000/svg">
<path d="M12 2.75C12.4142 2.75 12.75 3.08579 12.75 3.5L12.75 21.5C12.75 21.9142 12.4142 22.25 12 22.25C11.5858 22.25 11.25 21.9142 11.25 21.5L11.25 3.5C11.25 3.08579 11.5858 2.75 12 2.75ZM7 6.75C7.41421 6.75 7.75 7.08579 7.75 7.5L7.75 17.5C7.75 17.9142 7.41421 18.25 7 18.25C6.58578 18.25 6.25 17.9142 6.25 17.5L6.25 7.5C6.25 7.08579 6.58579 6.75 7 6.75ZM17 6.75C17.4142 6.75 17.75 7.08579 17.75 7.5L17.75 17.5C17.75 17.9142 17.4142 18.25 17 18.25C16.5858 18.25 16.25 17.9142 16.25 17.5L16.25 7.5C16.25 7.08579 16.5858 6.75 17 6.75ZM2 10.75C2.41421 10.75 2.75 11.0858 2.75 11.5L2.75 13.5C2.75 13.9142 2.41421 14.25 2 14.25C1.58578 14.25 1.25 13.9142 1.25 13.5L1.25 11.5C1.25 11.0858 1.58579 10.75 2 10.75ZM22 10.75C22.4142 10.75 22.75 11.0858 22.75 11.5L22.75 13.5C22.75 13.9142 22.4142 14.25 22 14.25C21.5858 14.25 21.25 13.9142 21.25 13.5L21.25 11.5C21.25 11.0858 21.5858 10.75 22 10.75Z" fill="black"/>
</svg>
