<svg width="24" height="25" viewBox="0 0 24 25" fill="none" xmlns="http://www.w3.org/2000/svg">
<path d="M12.4004 1.99634C14.068 1.99634 15.3643 1.99551 16.4023 2.08032C17.449 2.16587 18.2995 2.34196 19.0645 2.73169C20.3345 3.37883 21.3675 4.41179 22.0146 5.68189C22.4044 6.44683 22.5805 7.29737 22.666 8.34399C22.7508 9.38205 22.75 10.6784 22.75 12.3459V13.1467C22.75 14.8143 22.7508 16.1106 22.666 17.1487C22.5805 18.1953 22.4044 19.0459 22.0146 19.8108C21.3675 21.0809 20.3345 22.1138 19.0645 22.761C18.2995 23.1507 17.449 23.3268 16.4023 23.4124C15.3643 23.4972 14.068 23.4963 12.4004 23.4963H11.5996C9.93202 23.4963 8.63571 23.4972 7.59766 23.4124C6.55103 23.3268 5.70049 23.1507 4.93555 22.761C3.66545 22.1138 2.6325 21.0809 1.98535 19.8108C1.59562 19.0459 1.41953 18.1953 1.33398 17.1487C1.24917 16.1106 1.25 14.8143 1.25 13.1467V12.3459C1.25 10.6784 1.24917 9.38205 1.33398 8.34399C1.41953 7.29737 1.59562 6.44683 1.98535 5.68189C2.6325 4.41179 3.66545 3.37883 4.93555 2.73169C5.70049 2.34196 6.55103 2.16587 7.59766 2.08032C8.63571 1.99551 9.93202 1.99634 11.5996 1.99634H12.4004ZM11.5996 3.49634C9.90753 3.49634 8.68345 3.49681 7.7207 3.57544C6.76657 3.6534 6.1346 3.80447 5.61621 4.0686C4.62859 4.5719 3.82556 5.37493 3.32227 6.36255C3.05814 6.88093 2.90706 7.51291 2.8291 8.46704C2.75047 9.42979 2.75 10.6539 2.75 12.3459V13.1467C2.75 14.8388 2.75047 16.0629 2.8291 17.0256C2.90706 17.9798 3.05814 18.6117 3.32227 19.1301C3.82556 20.1177 4.62859 20.9208 5.61621 21.4241C6.1346 21.6882 6.76657 21.8393 7.7207 21.9172C8.68345 21.9959 9.90753 21.9963 11.5996 21.9963H12.4004C14.0925 21.9963 15.3165 21.9959 16.2793 21.9172C17.2334 21.8393 17.8654 21.6882 18.3838 21.4241C19.3714 20.9208 20.1744 20.1178 20.6777 19.1301C20.9419 18.6117 21.0929 17.9798 21.1709 17.0256C21.2495 16.0629 21.25 14.8388 21.25 13.1467V12.3459C21.25 10.6539 21.2495 9.42979 21.1709 8.46704C21.0929 7.51291 20.9419 6.88093 20.6777 6.36255C20.1744 5.37493 19.3714 4.5719 18.3838 4.0686C17.8654 3.80447 17.2334 3.6534 16.2793 3.57544C15.3165 3.49681 14.0925 3.49634 12.4004 3.49634H11.5996Z" fill="white"/>
</svg>
