<svg width="24" height="25" viewBox="0 0 24 25" fill="none" xmlns="http://www.w3.org/2000/svg">
<path d="M13.2705 1.99634C13.8284 1.99633 14.3133 1.98394 14.7422 2.15259C15.0927 2.29043 15.4029 2.5141 15.6445 2.80298C15.9403 3.15661 16.0823 3.62123 16.2588 4.15063L16.541 4.99634H22C22.4142 4.99634 22.75 5.33213 22.75 5.74634C22.75 6.16055 22.4142 6.49634 22 6.49634H4.7959L5.39453 16.678C5.4576 17.7501 5.50229 18.5105 5.58496 19.1047C5.66638 19.6899 5.77792 20.0529 5.93945 20.3401C6.26314 20.9153 6.75436 21.378 7.34766 21.6672C7.64378 21.8116 8.01179 21.9016 8.60059 21.9485C9.19856 21.9961 9.96037 21.9963 11.0342 21.9963H12.9658C14.0396 21.9963 14.8014 21.9961 15.3994 21.9485C15.9882 21.9016 16.3562 21.8116 16.6523 21.6672C17.2456 21.378 17.7369 20.9153 18.0605 20.3401C18.2221 20.0529 18.3336 19.6899 18.415 19.1047C18.4977 18.5105 18.5424 17.7501 18.6055 16.678L19.0156 9.70239C19.0399 9.28895 19.3952 8.97309 19.8086 8.99731C20.2221 9.02164 20.5379 9.37683 20.5137 9.79028L20.1035 16.7659C20.0419 17.8141 19.9932 18.6447 19.9004 19.3118C19.8063 19.9878 19.6591 20.5581 19.3682 21.0754C18.8951 21.9163 18.1768 22.5931 17.3096 23.0159C16.7761 23.2759 16.1988 23.3894 15.5186 23.4436C14.8472 23.4971 14.0157 23.4963 12.9658 23.4963H11.0342C9.98435 23.4963 9.15277 23.4971 8.48145 23.4436C7.80117 23.3894 7.22387 23.2759 6.69043 23.0159C5.82318 22.5931 5.10492 21.9163 4.63184 21.0754C4.34086 20.5581 4.19369 19.9878 4.09961 19.3118C4.00679 18.6447 3.95814 17.8141 3.89648 16.7659L3.29297 6.49634H2C1.58579 6.49634 1.25 6.16055 1.25 5.74634C1.25 5.33213 1.58579 4.99634 2 4.99634H7.45898L7.74121 4.15063C7.91768 3.62123 8.05974 3.15661 8.35547 2.80298C8.59709 2.5141 8.90733 2.29043 9.25781 2.15259C9.68671 1.98394 10.1716 1.99633 10.7295 1.99634H13.2705ZM10 9.99634C10.4142 9.99634 10.75 10.3321 10.75 10.7463V17.7463C10.75 18.1606 10.4142 18.4963 10 18.4963C9.58579 18.4963 9.25 18.1606 9.25 17.7463V10.7463C9.25 10.3321 9.58579 9.99634 10 9.99634ZM14 9.99634C14.4142 9.99634 14.75 10.3321 14.75 10.7463V14.7463C14.75 15.1606 14.4142 15.4963 14 15.4963C13.5858 15.4963 13.25 15.1606 13.25 14.7463V10.7463C13.25 10.3321 13.5858 9.99634 14 9.99634ZM10.7295 3.49634C10.044 3.49634 9.90689 3.5087 9.80664 3.5481C9.68988 3.59402 9.58638 3.66868 9.50586 3.76489C9.43674 3.84754 9.38097 3.97357 9.16406 4.62427L9.04004 4.99634H14.96L14.8359 4.62427C14.619 3.97357 14.5633 3.84754 14.4941 3.76489C14.4136 3.66868 14.3101 3.59402 14.1934 3.5481C14.0931 3.5087 13.956 3.49634 13.2705 3.49634H10.7295Z" fill="#FF4400"/>
</svg>
