<svg width="138" height="26" viewBox="0 0 138 26" fill="none" xmlns="http://www.w3.org/2000/svg">
<path d="M33.7562 19.9519V5.6748H39.5282C42.9955 5.6748 44.77 6.85776 44.77 9.20328C44.77 11.1409 43.5462 12.4054 41.4455 12.589V12.6298C43.8114 12.793 45.1779 14.0983 45.1779 16.1991C45.1779 18.6874 43.3015 19.9519 39.6302 19.9519H33.7562ZM39.3447 11.8547C41.4862 11.8547 42.6896 10.9981 42.6896 9.50922C42.6896 8.1223 41.6902 7.51042 39.4059 7.51042H35.755V11.8547H39.3447ZM35.755 18.1163H39.3651C42.0369 18.1163 43.0975 17.4636 43.0975 15.8523C43.0975 14.2615 42.0573 13.6496 39.3447 13.6496H35.755V18.1163ZM46.9715 19.9519V9.44803H48.8683L48.644 12.385H48.6848C49.2966 10.3047 50.8875 9.16249 53.2127 9.16249C53.6002 9.16249 53.9673 9.20328 54.1917 9.24407V11.1409C53.7633 10.9981 53.0699 10.8961 52.4784 10.8961C50.3368 10.8961 48.8683 12.3442 48.8683 14.4654V19.9519H46.9715ZM58.6163 20.2374C56.2504 20.2374 54.7411 18.9525 54.7411 16.9129C54.7411 14.8121 56.3524 13.5884 59.1058 13.5884H62.9811C62.9811 11.8343 61.9001 10.8961 59.8809 10.8961C58.5959 10.8961 57.0866 11.2837 55.4958 12.0179V10.1415C57.1682 9.48882 58.7183 9.16249 60.0848 9.16249C63.083 9.16249 64.8779 10.8146 64.8779 13.772V19.9519H62.9811L63.185 17.0149H63.1442C62.5119 19.0545 60.8395 20.2374 58.6163 20.2374ZM58.9223 18.5242C61.0842 18.5242 62.9811 17.0557 62.9811 15.3424V15.0773H59.0446C57.515 15.0773 56.6991 15.6688 56.6991 16.7905C56.6991 17.9123 57.4946 18.5242 58.9223 18.5242ZM67.1822 19.9519V9.44803H69.079L68.8546 12.385H68.8954C69.4461 10.3862 71.0982 9.16249 73.2805 9.16249C76.0748 9.16249 77.7472 11.1001 77.7472 14.3226V19.9519H75.8504V14.4246C75.8504 12.2219 74.6063 10.8961 72.5871 10.8961C70.4863 10.8961 69.079 12.3646 69.079 14.5266V19.9519H67.1822ZM84.9164 20.2374C81.7755 20.2374 79.5727 17.9735 79.5727 14.7917C79.5727 11.4876 81.959 9.16249 85.3652 9.16249C86.8948 9.16249 88.2206 9.63159 89.4443 10.631V5.6748L91.3411 5.26688V19.9519H89.4443L89.6687 17.0149H89.6279C88.9752 19.0137 87.2008 20.2374 84.9164 20.2374ZM85.5079 18.5242C87.9758 18.5242 89.4443 17.0965 89.4443 14.6898C89.4443 12.3035 87.9758 10.8961 85.5079 10.8961C82.9992 10.8961 81.5307 12.3035 81.5307 14.6898C81.5307 17.0965 82.9992 18.5242 85.5079 18.5242ZM100.579 20.2374C98.9267 20.2374 97.6622 19.8499 96.3976 19.1973L96.9891 17.382C98.1721 18.0347 99.1511 18.4222 100.579 18.4222C102.659 18.4222 103.801 17.382 103.801 15.8931C103.801 14.7917 103.23 14.0371 102.353 13.568C101.395 14.5674 100.191 15.2201 99.0083 15.2201C97.8661 15.2201 97.1319 14.649 97.1319 13.6904C97.1319 12.5278 98.1517 11.7324 100.028 11.7324C100.579 11.7324 101.129 11.7732 101.639 11.8547C102.068 10.9777 102.333 9.95793 102.333 9.01972C102.333 7.79597 101.803 7.20449 100.824 7.20449C98.4372 7.20449 95.7653 10.9981 95.6022 17.3412L95.643 19.9519H93.7258L93.685 15.8115C93.685 12.1607 93.9501 8.95853 94.4804 5.6748H96.3976C96.1325 7.34726 95.9489 8.81576 95.8061 10.2843C97.0299 7.24528 98.8655 5.38925 101.191 5.38925C103.291 5.38925 104.372 6.73538 104.372 8.83616C104.372 10.0395 103.964 11.2633 103.312 12.3238C104.842 12.9765 105.841 14.1391 105.841 15.9135C105.841 18.463 103.761 20.2374 100.579 20.2374ZM98.7024 13.568C98.7024 13.7924 98.8859 13.9147 99.2123 13.9147C99.7833 13.9147 100.334 13.6088 100.803 13.0989C100.477 13.0581 100.15 13.0377 99.8241 13.0377C99.0695 13.0377 98.7024 13.2213 98.7024 13.568ZM112.382 20.2374C109.384 20.2374 107.61 18.6058 107.61 15.4036L107.63 14.9345L106.264 14.6286L106.549 13.0581L107.936 13.3844C108.793 10.9369 111.138 9.20328 114.035 9.20328C116.543 9.20328 118.134 10.3862 118.134 12.1811C118.134 14.3022 115.891 15.5464 112.24 15.5464C111.322 15.5464 110.486 15.4648 109.527 15.3016V15.4036C109.527 17.6064 110.608 18.6058 112.484 18.6058C114.137 18.6058 115.564 17.8511 116.727 16.607L117.787 17.7492C116.462 19.3196 114.667 20.2374 112.382 20.2374ZM109.792 13.7312C110.628 13.8535 111.424 13.9147 112.24 13.9147C114.748 13.9147 116.217 13.3232 116.217 12.2015C116.217 11.3041 115.421 10.835 114.014 10.835C111.975 10.835 110.404 11.9771 109.792 13.7312ZM123.349 20.2374C122.105 20.2374 121.166 19.5032 120.616 18.259C120.065 18.565 119.474 18.8301 118.882 19.0749L118.311 17.5656C118.964 17.3004 119.576 16.9945 120.167 16.6274C120.106 16.1991 120.065 15.73 120.065 15.2405C120.065 9.87634 121.615 5.28727 124.817 5.28727C126.469 5.28727 127.734 6.32746 127.734 8.28547C127.754 11.2225 125.572 14.7917 122.227 17.2393C122.472 18.0959 122.88 18.6058 123.451 18.6058C124.246 18.6058 125.042 17.9327 125.796 16.5662L127 17.6064C125.919 19.4012 124.756 20.2374 123.349 20.2374ZM132.343 20.2374C130.324 20.2374 129.08 18.2183 129.08 15.2405C129.08 9.87634 130.63 5.28727 133.812 5.28727C135.484 5.28727 136.728 6.32746 136.749 8.28547C136.749 11.2429 134.587 14.7917 131.242 17.2393C131.487 18.0959 131.895 18.6058 132.466 18.6058C133.241 18.6058 134.036 17.9327 134.811 16.5662L135.994 17.6064C134.934 19.4012 133.771 20.2374 132.343 20.2374ZM121.982 15.3016C124.389 13.2213 125.817 10.4678 125.817 8.32626C125.817 7.36765 125.368 6.91894 124.736 6.91894C123.124 6.91894 121.982 10.733 121.982 15.1181V15.3016ZM130.997 15.322C133.404 13.2213 134.811 10.4678 134.811 8.32626C134.811 7.36765 134.383 6.91894 133.751 6.91894C132.139 6.91894 130.997 10.733 130.997 15.1181V15.322Z" fill="white"/>
<path d="M8.00885 0C7.80925 0.165838 7.57128 0.397745 7.44635 0.542969C7.31212 0.704223 7.11094 0.972809 6.99908 1.14746C6.88723 1.32212 6.73492 1.59971 6.65436 1.77441C6.57828 1.94911 6.46115 2.24919 6.3985 2.44629C6.33588 2.64329 6.25129 2.92539 6.211 3.07324C6.17072 3.22107 6.12107 3.41391 6.09869 3.49902L5.78619 4.70801C5.76829 4.79312 5.70041 5.05808 5.63776 5.29102C5.57511 5.52395 5.48188 5.87346 5.43268 6.06152C5.37899 6.25407 5.29774 6.48655 5.25299 6.57617C5.20377 6.67024 5.07873 6.83625 4.96686 6.94824C4.85498 7.06022 4.66677 7.20333 4.54596 7.27051C4.42964 7.33317 4.19302 7.42728 4.01862 7.47656C3.84857 7.52584 3.49871 7.58462 3.24811 7.60254L2.79205 7.64258C2.61754 8.26965 2.49678 8.72655 2.40729 9.0625C2.32226 9.40294 2.25104 9.73026 2.25104 9.79297C2.25109 9.8823 2.28206 9.91345 2.39362 9.94922C2.47417 9.97162 2.70257 10.0351 2.89948 10.0889C3.09634 10.1381 3.51682 10.2495 3.83893 10.3301C4.15665 10.4107 4.70334 10.554 5.04791 10.6436L5.08307 10.6533C5.43112 10.7438 5.99017 10.8891 6.34479 10.9844C6.7117 11.0829 7.43703 11.2709 7.95612 11.4053C8.47522 11.5352 9.09768 11.701 9.34381 11.7637C9.58994 11.8309 10.0104 11.9381 10.2833 12.0098C10.5562 12.077 11.0172 12.1987 11.3126 12.2793C11.6078 12.3554 12.1221 12.4895 12.4532 12.5791C12.784 12.6686 13.1466 12.7578 13.2589 12.7803C13.37 12.8025 13.468 12.8297 13.4825 12.8389C13.4959 12.8478 14.02 12.9862 14.6465 13.1475C15.273 13.3087 15.9803 13.4881 16.213 13.5508C16.4455 13.6134 16.6645 13.6679 16.6915 13.668C16.7228 13.668 16.7672 13.6002 16.794 13.5195C16.8164 13.4433 16.8796 13.2146 16.9288 13.0176C16.9825 12.8204 17.0857 12.4356 17.1573 12.167C17.2289 11.8983 17.2862 11.6071 17.2862 11.5264C17.2862 11.3965 17.2552 11.3601 16.9151 11.1406C16.7138 11.0107 16.436 10.7825 16.3018 10.6348C16.1677 10.4915 15.9894 10.2407 15.9044 10.084C15.7791 9.84214 15.7469 9.73456 15.7335 9.43457C15.72 9.23747 15.7335 8.99503 15.7559 8.89648C15.7784 8.79751 15.8812 8.40379 15.9796 8.02344C16.078 7.64268 16.2042 7.1678 16.2579 6.9707C16.3116 6.77356 16.4454 6.25812 16.5528 5.82812C16.6646 5.39823 16.772 4.8431 16.7989 4.59668C16.8257 4.34596 16.8343 3.93398 16.8165 3.65625C16.7986 3.37852 16.736 2.9792 16.6778 2.7373C16.6151 2.49985 16.4585 2.09249 16.3243 1.81934C16.1856 1.53714 15.9625 1.17383 15.7969 0.967773C15.6404 0.770816 15.4029 0.511684 15.2686 0.390625C15.1583 0.291272 14.9776 0.14724 14.8301 0.0341797C18.1456 0.372586 20.7324 3.17332 20.7325 6.57812C20.7325 8.11955 20.2005 9.53585 19.3126 10.6572C22.1726 11.8729 24.1777 14.7081 24.1778 18.0117C24.1778 22.4233 20.602 25.9999 16.1905 26H0.371155V0H8.00885ZM8.17975 13.1797C8.00524 13.1797 7.75436 13.2195 7.62018 13.2598C7.48593 13.3046 7.28468 13.3948 7.17291 13.4619C7.06104 13.5336 6.89569 13.6634 6.80182 13.7529C6.70786 13.8425 6.56009 14.0258 6.47955 14.1602C6.39453 14.2945 6.2962 14.5232 6.25592 14.6621C6.22015 14.8054 6.18858 15.0469 6.18854 15.1992C6.18854 15.356 6.21524 15.5806 6.25104 15.7061C6.28239 15.827 6.36326 16.028 6.42584 16.1533C6.48849 16.2743 6.61352 16.4677 6.71198 16.5752C6.80592 16.6871 6.98951 16.8432 7.1192 16.9238C7.24439 17.0044 7.44561 17.108 7.56647 17.1484C7.71413 17.2022 7.91148 17.2285 8.22467 17.2285C8.58696 17.2285 8.72142 17.211 8.94049 17.126C9.08809 17.0678 9.2983 16.9507 9.41022 16.8701C9.52199 16.7896 9.68339 16.6378 9.7774 16.5303C9.86684 16.4228 10.0054 16.1897 10.086 16.0195C10.1933 15.7822 10.2341 15.6252 10.252 15.3701C10.261 15.1865 10.2476 14.9258 10.2208 14.7959C10.1938 14.6704 10.1179 14.4463 10.0508 14.3076C9.97926 14.1689 9.83155 13.95 9.71979 13.8291C9.60801 13.7038 9.3842 13.5334 9.2276 13.4482C9.07097 13.3631 8.84216 13.2692 8.71686 13.2334C8.59601 13.202 8.35425 13.1797 8.17975 13.1797Z" fill="white"/>
</svg>
